<svg viewBox="0 0 250 348" xmlns="http://www.w3.org/2000/svg" style="background-color: #e8f4f8; border: 2px solid #000000; border-radius: 4px;">
  <path d="M 25.446455324504065,19.53245460134758 L 21.66357044405807,21.71599035481688 L 19.978126685443744,24.392582568747002 L 19.64103793372076,28.93574566870734 L 16.981782225684515,30.027513545442048 L 14.210163600407473,22.209046815277702 L 18.405045844070216,17.71871119322384 L 21.551207526817276,15.957795263006687 L 25.446455324504065,19.53245460134758 Z M 18.44250014981695,33.249989697739466 L 22.749745310720787,31.858866112867986 L 25.74608977048002,32.05256686519181 L 29.416611733684917,30.80231655473756 L 60.12914244621547,30.943189829155017 L 62.676035237010616,38.69121992211069 L 65.67237969676985,44.92486231507951 L 68.06945526457717,48.288211741794385 L 72.03961167375802,53.729441966165496 L 78.93120393120375,52.901811478963396 L 82.33954575417972,51.44025125688324 L 88.107508839216,52.901811478963396 L 89.68058968058953,50.29565590224195 L 92.26493677713171,44.23810510229487 L 98.70707736561396,43.8330944383448 L 99.26889195181883,42.01935103022117 L 104.58740336789101,41.98413271161678 L 103.68850002996346,45.734883642979526 L 116.31060106669872,45.64683784646866 L 116.49787259543358,52.19744510687656 L 118.59531371726496,56.21233342777168 L 117.05968718163845,62.48119413934501 L 117.84622760232521,68.87331896603337 L 121.32947803679497,72.72972485320906 L 120.76766345059039,85.10896384263594 L 123.31455624138553,84.1580692403187 L 127.84652723677097,84.4222066298513 L 134.2886678252532,82.85499145195797 L 139.04536465512084,83.47131202753405 L 140.13153952178354,86.71139733913355 L 138.93300173787972,91.74761689955483 L 140.76826271948218,96.62535402625645 L 139.23263618385567,100.53458739133853 L 140.13153952178354,104.10924672967951 L 118.44549649427682,103.9859826145643 L 117.95859051956602,137.09120210264757 L 124.99999999999986,145.5964260455967 L 131.77922934020478,152.09420582809815 L 112.67753340924055,156.33801321992155 L 87.47078564151735,154.87645299784123 L 80.27955893809539,149.8754517560244 L 38.10601066698606,150.3332898978809 L 36.532929825612534,151.05526542927 L 30.31551507161248,146.35361989559 L 23.573740037154582,146.05426418745319 L 17.35632528315453,147.8151801176703 L 12.337448313057992,149.80501511881576 L 11.363636363636369,143.25440785840775 L 12.786899982021772,134.11525418058054 L 16.38251333373261,124.58869899810546 L 16.944327919937486,120.11597253535379 L 20.315215437166433,110.7478997865984 L 22.78719961646782,106.46887407617055 L 28.742434230238953,99.67173858553213 L 32.1133217474679,95.04052968906092 L 33.19949661413062,87.32771791470975 L 32.63768202792574,81.42864954848199 L 29.528974650925715,77.71311693572375 L 26.757356025648672,71.40903790554614 L 24.210463234853226,65.15778635327513 L 24.772277821058097,63.00946891841011 L 27.955893809552187,58.87131648239972 L 24.80973212680513,48.834095680161795 L 22.674836699226727,41.86086859650163 L 17.468688200395327,35.275043017489224 L 18.44250014981695,33.249989697739466 Z" fill="#d0e8f0" stroke="#5a8fa8" stroke-width="1" opacity="0.6"/>
  <path d="M 196.4628153652543,199.62132678466025 L 181.74327320668797,207.281311081105 L 172.4171510756876,215.064559492665 L 168.93390064121786,221.98495909841864 L 165.82519326421755,225.89419246350081 L 160.13213879067533,226.7218229507029 L 158.33433211481992,231.70521503321754 L 157.28561155390423,234.9453003448172 L 150.6187451309401,237.37536432851692 L 142.15407203212087,236.86469870875396 L 137.17264936777136,233.94157826459337 L 132.79049559537376,232.69132795413913 L 127.73416431953017,235.10378277853675 L 125.18727152873502,240.08717486105138 L 120.24330317013255,243.2039960575358 L 115.03715467130085,247.85281411330925 L 107.58374782765026,248.90936367143956 L 105.26158087133699,245.26426769588997 L 106.2353928207586,238.92497034710803 L 100.05543237250559,229.02862281928736 L 97.24635944148122,227.47901680069623 L 97.24635944148122,197.10321700444962 L 107.50883921615619,196.75103381840617 L 107.80847366213214,159.68375348733417 L 115.5615149517587,159.3491794605929 L 131.59195781146994,155.7040834850433 L 135.56211422065078,159.98310919547114 L 142.19152633786788,155.91539339666937 L 145.37514232636198,155.88017507806507 L 151.21801402289202,153.53815689087625 L 153.0907293102415,154.31295990017176 L 157.09834002516936,162.64209225009915 L 159.19578114700076,164.49105397682715 L 162.4543057469886,170.51338645817003 L 174.25241205729006,181.94173084527952 L 178.70947444118173,183.06871704061857 L 178.70947444118173,186.73142217547039 L 181.7807275124347,193.33485691378482 L 189.8334032480375,194.91968125098035 L 196.4628153652543,199.62132678466025 Z" fill="#d0e8f0" stroke="#5a8fa8" stroke-width="1" opacity="0.6"/>
  <path d="M 60.31641397495032,267.09962523058323 L 65.29783663929983,261.95775071434895 L 69.38035596572178,264.8104345213008 L 71.14070833583017,269.2479426654482 L 75.82249655420372,270.00513651544156 L 82.37700005992676,271.97736235728485 L 87.95769161622817,271.2201685072915 L 97.24635944148122,265.9022023980355 L 97.24635944148122,227.47901680069623 L 100.05543237250559,229.02862281928736 L 106.2353928207586,238.92497034710803 L 105.26158087133699,245.26426769588997 L 107.58374782765026,248.90936367143956 L 115.03715467130085,247.85281411330925 L 120.24330317013255,243.2039960575358 L 125.18727152873502,240.08717486105138 L 127.73416431953017,235.10378277853675 L 132.79049559537376,232.69132795413913 L 137.17264936777136,233.94157826459337 L 142.15407203212087,236.86469870875396 L 150.6187451309401,237.37536432851692 L 157.28561155390423,234.9453003448172 L 158.33433211481992,231.70521503321754 L 160.13213879067533,226.7218229507029 L 165.82519326421755,225.89419246350081 L 168.93390064121786,221.98495909841864 L 172.4171510756876,215.064559492665 L 181.74327320668797,207.281311081105 L 196.4628153652543,199.62132678466025 L 200.69515191466408,199.74459089977546 L 205.71402888476064,201.50550682999258 L 209.2347336249777,200.25525651953842 L 214.7779708755318,201.2941969183666 L 219.7593935398813,215.94501745777367 L 222.45610355366458,223.32325520538367 L 220.62084257206212,234.927691185515 L 221.48229160424293,238.66083295757545 L 216.23868879966452,236.7590437529409 L 213.2423443399053,237.49862844363213 L 212.26853239048367,240.52740384360573 L 209.42200515371255,244.4366372086879 L 209.4969137652066,248.02890570633093 L 215.71432851920667,253.66383668302598 L 221.81938035596562,252.5544596469892 L 223.91682147779701,247.9232507505179 L 231.8196799904117,248.0112965470288 L 229.19787858812248,255.58323504696273 L 227.99934080421895,264.2293322643291 L 225.30263079043567,268.93097779800905 L 218.18631269850775,274.17850727005634 L 216.16378018817045,275.6928949700431 L 211.74417211002583,280.97564276069465 L 208.8601905675077,286.31121802925276 L 202.94241025948358,293.7775015733737 L 191.18175825492915,304.5014795883964 L 183.84071432851934,310.7527311406675 L 175.97531012165172,315.4895949929517 L 165.11356145502484,319.5220924731491 L 159.8325043446994,320.06797641151644 L 158.48414933780774,322.95587853707264 L 152.1543716665669,321.4062725184815 L 146.98567747348224,323.3961075196269 L 135.7119314436386,321.3886633591793 L 129.4196080781445,322.65652282893575 L 125.11236291724096,322.1106388905684 L 114.40043147360221,326.21357300797445 L 105.48630670581888,327.86883398237865 L 99.08162042308366,331.79567650676296 L 94.32492359321635,332.04220473699337 L 89.94276982081846,328.34428128353727 L 86.42206508060167,328.15058053121334 L 81.92754839096298,323.50176247544 L 81.44064241625216,324.94571353821806 L 80.05483310361349,322.1458572091728 L 80.12974171510756,316.05308809062126 L 76.7588541978786,309.07986100696115 L 80.09228740936052,307.1780718023266 L 79.8301072691316,299.20112263844265 L 73.01342362317965,289.46325754434156 L 67.80727512434825,280.6410687339534 L 67.76982081860122,280.62345957465124 L 60.31641397495032,267.09962523058323 Z M 191.74357284113373,271.0440769142697 L 187.2116018457483,267.8392099212744 L 182.3425420986396,269.9523090375351 L 176.6869419308444,274.0376339956389 L 171.14370468029003,280.62345957465124 L 178.97165458141063,288.6180178978373 L 182.67963085036257,287.5790774990092 L 184.58980044345907,284.26855555020086 L 190.39521783424237,282.63090373509885 L 192.15557020435077,279.2499451490819 L 195.33918619284486,274.17850727005634 L 191.74357284113373,271.0440769142697 Z" fill="#d0e8f0" stroke="#5a8fa8" stroke-width="1" opacity="0.6"/>
  <path d="M 210.0587283514112,56.56451661381527 L 214.40342781806206,59.205890509141 L 218.56085575597777,60.94919728005607 L 225.19026787319487,62.71011321027322 L 231.07059387547196,65.82693440675769 L 235.9771079283274,70.47575246253109 L 238.63636363636363,79.29794127291927 L 236.87601126625526,82.11540676126663 L 234.77857014442387,90.55019406700717 L 236.76364834901415,99.17868212507133 L 233.5051237490263,102.78855978201662 L 230.3215077605322,112.45598823890896 L 235.82729070533955,115.15018961214128 L 204.2533109606282,123.72585019229908 L 205.22712291004981,131.13930625851347 L 197.36171870318216,132.56564816198932 L 191.40648408941104,136.70380059799973 L 190.1704919997602,140.31367825494502 L 186.42506142506153,141.123699582845 L 177.3985737400371,149.68175100370055 L 171.63061065500082,156.42605901643242 L 168.10990591478406,156.65497808736058 L 164.73901839755513,155.4575552548129 L 153.0907293102415,154.31295990017176 L 151.21801402289202,153.53815689087625 L 151.14310541139795,152.67530808506984 L 147.0605860849763,150.3332898978809 L 140.3188110505184,149.73457848160712 L 131.77922934020478,152.09420582809815 L 124.99999999999986,145.5964260455967 L 117.95859051956602,137.09120210264757 L 118.44549649427682,103.9859826145643 L 140.13153952178354,104.10924672967951 L 139.23263618385567,100.53458739133853 L 140.76826271948218,96.62535402625645 L 138.93300173787972,91.74761689955483 L 140.13153952178354,86.71139733913355 L 139.04536465512084,83.47131202753405 L 142.64097800683166,83.73544941706655 L 143.20279259303655,86.97553472866616 L 148.109306645892,86.71139733913355 L 154.70126445736204,87.67990110075311 L 158.1845148918321,92.39915579373516 L 166.4993707676635,93.86071601581548 L 172.86660274465137,90.56780322630925 L 175.18876970096494,96.02664260998253 L 183.1665368250734,97.4705936727606 L 187.02433031701315,101.90810181690799 L 191.29412117216995,107.6310785901139 L 199.23443399053164,107.7191243866248 L 198.37298495835083,96.50208991114124 L 195.52645772157973,98.38626995647357 L 188.260322406664,94.33616331697405 L 185.4512494756396,92.48720159024603 L 186.72469587103748,82.04497012405807 L 188.55995685263994,69.73616777183986 L 186.23778989632638,65.14017719397305 L 189.19668005033859,58.50152413705416 L 192.00575298136263,57.25127382659991 L 205.97620902498954,55.507967055684844 L 210.0587283514112,56.56451661381527 Z" fill="#d0e8f0" stroke="#5a8fa8" stroke-width="1" opacity="0.6"/>
  <path d="M 97.24635944148122,227.47901680069623 L 97.24635944148122,265.9022023980355 L 87.95769161622817,271.2201685072915 L 82.37700005992676,271.97736235728485 L 75.82249655420372,270.00513651544156 L 71.14070833583017,269.2479426654482 L 69.38035596572178,264.8104345213008 L 65.29783663929983,261.95775071434895 L 60.31641397495032,267.09962523058323 L 52.56337268532377,259.2459401818145 L 48.51830766464916,251.63878336327622 L 46.1961407083356,241.5135167645273 L 43.64924791754044,233.9767965831977 L 40.165997483070406,217.95246161822126 L 39.90381734284148,205.50278599158565 L 38.592916641696874,199.83263669628627 L 34.547851621022254,195.5536109858585 L 29.154431593455996,186.9427320870965 L 23.68610295439538,174.47544730115868 L 21.43884460957618,167.94244920005292 L 12.974171510756632,157.78196428269962 L 12.337448313057992,149.80501511881576 L 17.35632528315453,147.8151801176703 L 23.573740037154582,146.05426418745319 L 30.31551507161248,146.35361989559 L 36.532929825612534,151.05526542927 L 38.10601066698606,150.3332898978809 L 80.27955893809539,149.8754517560244 L 87.47078564151735,154.87645299784123 L 112.67753340924055,156.33801321992155 L 131.77922934020478,152.09420582809815 L 140.3188110505184,149.73457848160712 L 147.0605860849763,150.3332898978809 L 151.14310541139795,152.67530808506984 L 151.21801402289202,153.53815689087625 L 145.37514232636198,155.88017507806507 L 142.19152633786788,155.91539339666937 L 135.56211422065078,159.98310919547114 L 131.59195781146994,155.7040834850433 L 115.5615149517587,159.3491794605929 L 107.80847366213214,159.68375348733417 L 107.50883921615619,196.75103381840617 L 97.24635944148122,197.10321700444962 L 97.24635944148122,227.47901680069623 Z" fill="#ff6b6b" stroke="#d63031" stroke-width="2" opacity="0.8"/>
</svg>