<svg viewBox="0 0 250 125" xmlns="http://www.w3.org/2000/svg" style="background-color: #e8f4f8; border: 2px solid #000000; border-radius: 4px;">
  <path d="M 159.27090333109336,26.92391236858373 L 166.3026783142939,28.605116636608273 L 167.23864836325242,30.252471154269614 L 170.7425362388404,29.46264364580179 L 177.27032734952485,31.053581912858476 L 177.91830661418834,34.179042196366936 L 176.4783526927139,35.97307896560122 L 180.65421906498997,40.339696762416224 L 183.366132283767,41.55828777548089 L 182.98214457137374,42.76559553842476 L 187.47000095996927,43.9390535510054 L 189.38993952193536,45.71052381999766 L 186.79802246328117,47.16606308560279 L 181.4221944897763,46.94039808318334 L 180.1262359604493,47.5609768398366 L 181.71018527407116,49.77249386354653 L 183.3421330517424,54.04884565939402 L 177.6063165978689,54.443759413627845 L 175.56638187577997,55.89929867923297 L 175.1343956993377,59.26170721528189 L 172.47048094460987,58.61856195838662 L 166.47067293846592,58.93449296177374 L 164.71872900067203,57.37740444507992 L 162.22280887011624,58.53957920753973 L 159.70288950753584,57.56921969713633 L 154.4710569261784,57.43382069568477 L 147.03129499856,55.842882428628116 L 140.28751079965434,55.312569672942544 L 135.1276759143707,55.47053517463611 L 131.47979264663533,57.27585519399122 L 128.2878947873668,57.535369946773486 L 128.1438993952194,54.567875164958565 L 126.10396467313048,51.476264631812924 L 130.08783718920992,50.110991367175686 L 130.1358356532591,47.4594275887479 L 128.2878947873668,44.92069631152984 L 127.99990400307198,41.97576802995674 L 134.431698185658,42.02090103044077 L 141.67946625707975,39.50473625346453 L 143.2154171066526,35.7474139631818 L 148.68724200825568,33.60359644019755 L 148.06326197561677,30.624818408261604 L 152.11913218777002,29.496493396164823 L 159.27090333109336,26.92391236858373 Z" fill="#d0e8f0" stroke="#5a8fa8" stroke-width="1" opacity="0.6"/>
  <path d="M 71.55371028127097,60.67211348040297 L 74.72160890851488,62.827214253508046 L 79.68944993760206,63.402660009677454 L 79.2814629931842,65.24182977939557 L 82.90534702889518,66.61838629415382 L 83.88931554190273,64.89204902564542 L 88.47316885859647,65.6367435336294 L 89.09714889123556,67.72414480600878 L 94.06498992032256,68.13034181036362 L 97.11289238744365,71.41376759556567 L 95.14495536142853,71.42505084568668 L 94.11298838437176,72.62107535850953 L 92.57703753479892,72.91443986165464 L 92.14505135835665,74.42639537786462 L 90.84909282902944,74.74232638125176 L 90.68109820485742,75.36290513790502 L 88.40117116252286,76.05118339528414 L 85.4492656235,75.93835089407442 L 84.51329557454164,77.40517340980037 L 81.44139387539595,76.15273264637284 L 78.29749448017664,76.491230150002 L 73.13765959489302,74.46024512822747 L 70.78573485648464,74.9567081335502 L 67.01785542862625,77.68725466282466 L 62.07401363156385,75.5434371398406 L 58.306134203705454,72.67749160911438 L 54.92224248824032,71.07527009193672 L 54.202265527503194,68.26574081181536 L 53.02630315829901,66.27988879052467 L 57.87414802726318,64.82434952491974 L 60.346068925794384,63.1657117571372 L 65.14591533070954,61.87942124334665 L 66.82586157242962,60.604413979677105 L 68.5778055102237,61.37167498790311 L 71.55371028127097,60.67211348040297 Z" fill="#d0e8f0" stroke="#5a8fa8" stroke-width="1" opacity="0.6"/>
  <path d="M 65.57790150715181,43.01382704108602 L 67.11385235672466,46.398802077376786 L 65.26591149083237,48.18155559648986 L 67.68983392531436,50.55103812189354 L 69.34578093501003,54.116545160119884 L 68.81779783046953,56.4183281847975 L 71.55371028127097,60.67211348040297 L 68.5778055102237,61.37167498790311 L 66.82586157242962,60.604413979677105 L 65.14591533070954,61.87942124334665 L 60.346068925794384,63.1657117571372 L 57.87414802726318,64.82434952491974 L 53.02630315829901,66.27988879052467 L 54.202265527503194,68.26574081181536 L 54.92224248824032,71.07527009193672 L 58.306134203705454,72.67749160911438 L 62.07401363156385,75.5434371398406 L 59.72208889315548,78.61248117274422 L 57.3221656906979,79.45872493181692 L 58.282134971680854,83.80277622839009 L 57.65815493904195,84.93110124048707 L 55.57022175290401,83.56582797584964 L 52.3783238936355,83.36272947367223 L 47.602476720744946,84.55875398649508 L 41.72266487472401,84.27667273347078 L 40.78669482576566,86.03685975234202 L 37.40280311030052,84.18640673250309 L 35.410866852260796,84.55875398649508 L 28.259095708937263,82.51648571459953 L 26.891139483536637,83.96074173008365 L 21.22732072573674,83.9156087295998 L 22.067293846596876,79.16536042867162 L 25.42718633003741,74.60692737980003 L 15.827493520207469,73.37705311661433 L 12.683594124987975,71.6281493478641 L 13.067581837381233,68.70578756653302 L 11.72362484400502,67.20511530044425 L 12.491600268791347,62.6918152520565 L 11.363636363636363,55.707483427176555 L 15.371508111740404,55.707483427176555 L 17.051454353460674,53.202601900321326 L 18.70740136315634,47.09836358487692 L 17.483440529903135,44.84171356068295 L 18.779399059230144,43.431307295561865 L 24.34722088893163,43.070243291690886 L 25.595180954209436,44.53706580741684 L 30.107036574829557,41.25364002221477 L 28.595084957281315,38.74875849535954 L 28.283094940961867,34.96886970483496 L 33.32293366612267,35.8489632142705 L 37.59479696649714,34.83347070338323 L 37.690793894595366,37.40605173096432 L 44.43457809350104,38.963140247657975 L 44.36258039742723,41.33262277306166 L 51.15436306038211,40.080182009633944 L 54.898243256215906,38.25229549003703 L 62.41000287990791,40.88129276822278 L 65.57790150715181,43.01382704108602 Z" fill="#d0e8f0" stroke="#5a8fa8" stroke-width="1" opacity="0.6"/>
  <path d="M 148.06326197561677,30.624818408261604 L 148.68724200825568,33.60359644019755 L 143.2154171066526,35.7474139631818 L 141.67946625707975,39.50473625346453 L 134.431698185658,42.02090103044077 L 127.99990400307198,41.97576802995674 L 126.39195545742533,39.92221650794038 L 122.98406450993578,39.20008850019842 L 122.43208217337049,37.50760098205305 L 123.1520591341078,35.679714462455934 L 120.20015359508494,34.61908895108482 L 113.21637707593362,33.45691418862498 L 111.80042238648359,27.849138878503283 L 119.43217817029861,25.80687060660776 L 130.6158202937506,26.235634111204604 L 137.16761063645964,25.5699223540675 L 138.103580685418,26.95776211894676 L 141.65546702505517,27.386525623543406 L 148.06326197561677,30.624818408261604 Z" fill="#d0e8f0" stroke="#5a8fa8" stroke-width="1" opacity="0.6"/>
  <path d="M 121.83210137275618,74.14431412484034 L 119.98416050686389,75.88193464346956 L 118.66420274551209,78.56734817226038 L 117.24824805606227,79.2556264296395 L 110.12047614476333,77.22464140786497 L 107.93654603052698,77.6308384122198 L 106.35259671690513,79.19921017903465 L 103.23269655371023,80.03417068798632 L 102.51271959297311,79.60540718338947 L 99.27282326965539,80.64346619451857 L 96.60890851492756,80.84656469669618 L 96.08092541038688,82.17798821097038 L 90.48910434866079,83.00166546980124 L 88.0171834501296,82.26825421193827 L 84.63329173466445,80.56448344367189 L 83.96131323797636,78.25141716887306 L 84.51329557454164,77.40517340980037 L 85.4492656235,75.93835089407442 L 88.40117116252286,76.05118339528414 L 90.68109820485742,75.36290513790502 L 90.84909282902944,74.74232638125176 L 92.14505135835665,74.42639537786462 L 92.57703753479892,72.91443986165464 L 94.11298838437176,72.62107535850953 L 95.14495536142853,71.42505084568668 L 97.11289238744365,71.41376759556567 L 97.4968800998369,71.8199645999207 L 100.23279255063835,70.90602134012212 L 103.59268503407888,73.27550386552562 L 107.5525583181339,71.84253110016252 L 110.69645771335321,72.53080935754164 L 115.49630411826818,71.58301634738025 L 121.83210137275618,74.14431412484034 Z" fill="#d0e8f0" stroke="#5a8fa8" stroke-width="1" opacity="0.6"/>
  <path d="M 183.3421330517424,54.04884565939402 L 185.8380531822982,54.308360412176285 L 187.51799942401848,52.796404895966305 L 189.5339349140828,53.13490239959546 L 196.4457137371605,52.49175714270018 L 200.7175770375348,56.26036268310395 L 199.03763079581452,57.61435269762036 L 199.5896131323798,59.679187469757736 L 204.91744264183546,60.0064017232657 L 207.29336661226844,62.89491375423392 L 207.149371220121,64.2037707682663 L 215.59710089277135,66.55068679342796 L 220.70893731400596,65.49006128205684 L 224.83680522223284,68.61552156556533 L 228.72468081021407,68.54782206483947 L 238.56436594028983,70.71420608806574 L 238.63636363636363,72.66620835899337 L 235.9244504175866,76.16401589649385 L 237.41240280311024,79.84235543592973 L 236.35643659402908,82.06515570976086 L 229.90064317941824,82.55033546496237 L 226.4687529999041,84.41207173492234 L 226.25275991168286,87.36828326661643 L 220.9249304022272,87.90987927242281 L 216.4850724776807,90.06498004552806 L 210.24527215129112,90.41476079927804 L 204.5094556974178,92.89707582589125 L 204.84544494576184,96.4738661142386 L 203.83747720072967,96.27076761206118 L 202.97350484784494,94.9506273479078 L 200.8375731976576,94.69111259512552 L 196.08572525679185,93.25813982976241 L 194.33378131899778,94.90549434742375 L 193.421810502064,94.1833663396818 L 183.05414226744736,92.50216207165742 L 182.5981568589805,90.0085637949232 L 176.4303542286647,90.83224105375388 L 173.95843333013352,94.49929734306892 L 168.7985984448497,99.4300776459325 L 165.77469520975322,98.29046938371471 L 162.6307958145339,99.36237814520663 L 159.65489104348663,98.13250388202114 L 161.3348372852069,97.41037587427898 L 162.51079965441107,95.11987609972218 L 164.33474128827876,92.99862507697995 L 163.8547566477873,91.80260056415729 L 165.2467121052127,91.27228780847173 L 165.89469136987623,92.18623106827029 L 169.83056542190647,92.3893295704477 L 171.60650859172515,91.89286656512499 L 170.35854852644715,91.21587155786688 L 170.814533934914,90.22294554722163 L 168.48660842853025,88.53045802907624 L 167.5266391475473,85.74349524919673 L 165.1027167130653,84.64901998746276 L 165.58270135355679,82.3923699632688 L 162.5827973504849,80.59833319403472 L 159.82288566765865,80.35010169137345 L 154.92704233464528,78.27398366911507 L 150.48718441009896,78.92841217613136 L 148.90323509647692,79.9100549366556 L 146.07132571757705,79.9100549366556 L 144.4153787078814,81.47842670347043 L 139.4955361428434,82.1102887102447 L 137.21560910050886,83.13706447125278 L 134.11970816933857,81.51227645383328 L 129.84784486896427,81.47842670347043 L 125.71997696073721,80.74501544560728 L 122.84006911778816,82.17798821097038 L 122.38408370932129,80.3839514417363 L 118.66420274551209,78.56734817226038 L 119.98416050686389,75.88193464346956 L 121.83210137275618,74.14431412484034 L 123.27205529423063,74.53922787907416 L 121.56810982048574,71.5378833468964 L 127.61591629067871,65.99780753750056 L 130.92781031007004,65.21926327915355 L 131.62378803878275,63.34624375907259 L 128.2878947873668,57.535369946773486 L 131.47979264663533,57.27585519399122 L 135.1276759143707,55.47053517463611 L 140.28751079965434,55.312569672942544 L 147.03129499856,55.842882428628116 L 154.4710569261784,57.43382069568477 L 159.70288950753584,57.56921969713633 L 162.22280887011624,58.53957920753973 L 164.71872900067203,57.37740444507992 L 166.47067293846592,58.93449296177374 L 172.47048094460987,58.61856195838662 L 175.1343956993377,59.26170721528189 L 175.56638187577997,55.89929867923297 L 177.6063165978689,54.443759413627845 L 183.3421330517424,54.04884565939402 Z" fill="#d0e8f0" stroke="#5a8fa8" stroke-width="1" opacity="0.6"/>
  <path d="M 127.99990400307198,41.97576802995674 L 128.2878947873668,44.92069631152984 L 130.1358356532591,47.4594275887479 L 130.08783718920992,50.110991367175686 L 126.10396467313048,51.476264631812924 L 128.1438993952194,54.567875164958565 L 128.2878947873668,57.535369946773486 L 131.62378803878275,63.34624375907259 L 130.92781031007004,65.21926327915355 L 127.61591629067871,65.99780753750056 L 121.56810982048574,71.5378833468964 L 123.27205529423063,74.53922787907416 L 121.83210137275618,74.14431412484034 L 115.49630411826818,71.58301634738025 L 110.69645771335321,72.53080935754164 L 107.5525583181339,71.84253110016252 L 103.59268503407888,73.27550386552562 L 100.23279255063835,70.90602134012212 L 97.4968800998369,71.8199645999207 L 97.11289238744365,71.41376759556567 L 94.06498992032256,68.13034181036362 L 89.09714889123556,67.72414480600878 L 88.47316885859647,65.6367435336294 L 83.88931554190273,64.89204902564542 L 82.90534702889518,66.61838629415382 L 79.2814629931842,65.24182977939557 L 79.68944993760206,63.402660009677454 L 74.72160890851488,62.827214253508046 L 71.55371028127097,60.67211348040297 L 68.81779783046953,56.4183281847975 L 69.34578093501003,54.116545160119884 L 67.68983392531436,50.55103812189354 L 65.26591149083237,48.18155559648986 L 67.11385235672466,46.398802077376786 L 65.57790150715181,43.01382704108602 L 70.11375635979654,41.05054152003737 L 80.5294230584622,37.970214237012726 L 88.92915426706354,35.71356421281877 L 95.57694153787081,36.84188922491575 L 96.08092541038688,38.466677242335436 L 102.51271959297311,38.54565999318214 L 110.72045694537782,39.30163775128713 L 122.98406450993578,39.20008850019842 L 126.39195545742533,39.92221650794038 L 127.99990400307198,41.97576802995674 Z" fill="#ff6b6b" stroke="#d63031" stroke-width="2" opacity="0.8"/>
</svg>